<svg xmlns="http://www.w3.org/2000/svg" width="972" height="1234">
 <!-- Created with Image Occlusion Enhanced -->
 <g>
  <title>Labels</title>
 </g>
 <g>
  <title>Masks</title>
  <rect fill="#FFEBA2" stroke="#2D2D2D" x="171.47827" y="665.99995" width="47.82609" height="20.28986" id="11f4be3574af4d709a420eb55c57b698-ao-1"/>
  
  <rect fill="#FFEBA2" stroke="#2D2D2D" x="229.44929" y="515.27531" width="52.17391" height="18.84058" id="11f4be3574af4d709a420eb55c57b698-ao-3"/>
  <rect fill="#FFEBA2" stroke="#2D2D2D" x="465.68118" y="489.18836" width="94.2029" height="23.18841" id="11f4be3574af4d709a420eb55c57b698-ao-4"/>
  <rect fill="#FFEBA2" stroke="#2D2D2D" x="294.66668" y="1009.47822" width="72.46377" height="23.18841" id="11f4be3574af4d709a420eb55c57b698-ao-5"/>
  <rect fill="#FFEBA2" stroke="#2D2D2D" x="359.88407" y="822.52169" width="84.05797" height="21.73913" id="11f4be3574af4d709a420eb55c57b698-ao-6"/>
  <rect fill="#FFEBA2" stroke="#2D2D2D" x="546.8406" y="694.98546" width="59.42029" height="20.28986" id="11f4be3574af4d709a420eb55c57b698-ao-7"/>
  <rect fill="#FFEBA2" stroke="#2D2D2D" x="617.85509" y="600.78256" width="71.01449" height="23.18841" id="11f4be3574af4d709a420eb55c57b698-ao-8"/>
  <rect fill="#FFEBA2" stroke="#2D2D2D" x="833.79712" y="419.62314" width="66.66667" height="14.49275" id="11f4be3574af4d709a420eb55c57b698-ao-9"/>
  <rect fill="#FFEBA2" stroke="#2D2D2D" x="891.76814" y="461.65212" width="57.97102" height="14.49275" id="11f4be3574af4d709a420eb55c57b698-ao-10"/>
  <rect fill="#FFEBA2" stroke="#2D2D2D" x="870.02901" y="473.24633" width="47.82609" height="11.5942" id="11f4be3574af4d709a420eb55c57b698-ao-11"/>
  <rect fill="#FFEBA2" stroke="#2D2D2D" x="790.31886" y="450.05792" width="63.76812" height="17.3913" id="11f4be3574af4d709a420eb55c57b698-ao-12"/>
  <rect fill="#FFEBA2" stroke="#2D2D2D" x="522.20291" y="573.24633" width="57.97102" height="17.3913" id="11f4be3574af4d709a420eb55c57b698-ao-13"/>
  <rect fill="#FFEBA2" stroke="#2D2D2D" x="561.33335" y="597.88401" width="53.62319" height="17.3913" id="11f4be3574af4d709a420eb55c57b698-ao-14"/>
  <rect fill="#FFEBA2" stroke="#2D2D2D" x="423.65219" y="629.76807" width="47.82609" height="17.3913" id="11f4be3574af4d709a420eb55c57b698-ao-15"/>
  <rect fill="#FFEBA2" stroke="#2D2D2D" x="378.72465" y="563.1014" width="69.56522" height="23.18841" id="11f4be3574af4d709a420eb55c57b698-ao-16"/>
  <rect fill="#FFEBA2" stroke="#2D2D2D" x="62.78262" y="697.88401" width="55.07246" height="20.28986" id="11f4be3574af4d709a420eb55c57b698-ao-17"/>
 </g>
</svg>