<svg xmlns="http://www.w3.org/2000/svg" width="984" height="1238">
 <!-- Created with Image Occlusion Enhanced -->
 <g>
  <title>Labels</title>
 </g>
 <g>
  <title>Masks</title>
  
  <rect id="22319c458aae4805b0df1ee6447702ea-ao-2" height="14.49275" width="73.91305" y="688.08702" x="333.39125" stroke="#2D2D2D" fill="#FFEBA2"/>
  <rect id="22319c458aae4805b0df1ee6447702ea-ao-3" height="15.94203" width="66.66667" y="662.00007" x="297.15937" stroke="#2D2D2D" fill="#FFEBA2"/>
  <rect id="22319c458aae4805b0df1ee6447702ea-ao-4" height="21.73913" width="63.76812" y="637.36238" x="339.18835" stroke="#2D2D2D" fill="#FFEBA2"/>
  <rect id="22319c458aae4805b0df1ee6447702ea-ao-5" height="18.84058" width="39.13044" y="673.59427" x="465.27531" stroke="#2D2D2D" fill="#FFEBA2"/>
  <rect id="22319c458aae4805b0df1ee6447702ea-ao-6" height="17.3913" width="89.85508" y="619.97108" x="476.86952" stroke="#2D2D2D" fill="#FFEBA2"/>
  <rect id="22319c458aae4805b0df1ee6447702ea-ao-7" height="21.73913" width="31.88406" y="608.37687" x="581.21735" stroke="#2D2D2D" fill="#FFEBA2"/>
  <rect id="22319c458aae4805b0df1ee6447702ea-ao-8" height="14.49275" width="94.2029" y="625.76818" x="608.75358" stroke="#2D2D2D" fill="#FFEBA2"/>
  <rect id="22319c458aae4805b0df1ee6447702ea-ao-9" height="15.94203" width="60.86957" y="698.23195" x="639.18836" stroke="#2D2D2D" fill="#FFEBA2"/>
  <rect id="22319c458aae4805b0df1ee6447702ea-ao-10" height="17.3913" width="73.91305" y="670.69572" x="546.43474" stroke="#2D2D2D" fill="#FFEBA2"/>
  <rect id="22319c458aae4805b0df1ee6447702ea-ao-11" height="13.04348" width="57.97102" y="760.55079" x="378.31879" stroke="#2D2D2D" fill="#FFEBA2"/>
  <rect id="22319c458aae4805b0df1ee6447702ea-ao-12" height="17.3913" width="63.76812" y="802.57978" x="107.30429" stroke="#2D2D2D" fill="#FFEBA2"/>
  <rect id="22319c458aae4805b0df1ee6447702ea-ao-13" height="24.63768" width="78.26087" y="863.44935" x="113.10139" stroke="#2D2D2D" fill="#FFEBA2"/>
  <rect id="22319c458aae4805b0df1ee6447702ea-ao-14" height="18.84058" width="81.15942" y="934.46384" x="143.53617" stroke="#2D2D2D" fill="#FFEBA2"/>
  <rect id="22319c458aae4805b0df1ee6447702ea-ao-15" height="23.18841" width="75.36232" y="908.37689" x="152.23182" stroke="#2D2D2D" fill="#FFEBA2"/>
  <rect id="22319c458aae4805b0df1ee6447702ea-ao-16" height="18.84058" width="85.50725" y="886.63775" x="197.15936" stroke="#2D2D2D" fill="#FFEBA2"/>
  <rect id="22319c458aae4805b0df1ee6447702ea-ao-17" height="28.98551" width="44.92754" y="872.145" x="307.30429" stroke="#2D2D2D" fill="#FFEBA2"/>
  <rect id="22319c458aae4805b0df1ee6447702ea-ao-18" height="26.08696" width="62.31884" y="933.01457" x="313.1014" stroke="#2D2D2D" fill="#FFEBA2"/>
  <rect id="22319c458aae4805b0df1ee6447702ea-ao-19" height="17.3913" width="110.14493" y="962.00008" x="243.53618" stroke="#2D2D2D" fill="#FFEBA2"/>
  <rect id="22319c458aae4805b0df1ee6447702ea-ao-20" height="31.88406" width="121.73913" y="959.10152" x="534.84053" stroke="#2D2D2D" fill="#FFEBA2"/>
 </g>
</svg>