<svg xmlns="http://www.w3.org/2000/svg" width="2432" height="1198">
 <!-- Created with Image Occlusion Enhanced -->
 <g>
  <title>Labels</title>
 </g>
 <g>
  <title>Masks</title>
  <rect id="2550112d000f4ffb92e3d60fee8e1689-ao-1" height="85.71429" width="430.95238" y="430.57142" x="922.7619" stroke="#2D2D2D" fill="#FFEBA2"/>
  <rect stroke="#2D2D2D" id="2550112d000f4ffb92e3d60fee8e1689-ao-2" height="61.90477" width="195.23808" y="492.47617" x="1360.85713" fill="#FFEBA2"/>
  <rect id="2550112d000f4ffb92e3d60fee8e1689-ao-3" height="126.19048" width="409.52381" y="449.61903" x="1594.19047" stroke="#2D2D2D" fill="#FFEBA2"/>
  <rect stroke="#2D2D2D" id="2550112d000f4ffb92e3d60fee8e1689-ao-4" height="64.28571" width="421.42856" y="630.57142" x="1482.28572" fill="#FFEBA2"/>
  <rect id="2550112d000f4ffb92e3d60fee8e1689-ao-5" height="42.85714" width="369.04762" y="761.5238" x="1563.23809" stroke="#2D2D2D" fill="#FFEBA2"/>
  <rect id="2550112d000f4ffb92e3d60fee8e1689-ao-6" height="64.28571" width="411.90476" y="842.47618" x="1498.95237" stroke="#2D2D2D" fill="#FFEBA2"/>
  <rect id="2550112d000f4ffb92e3d60fee8e1689-ao-7" height="64.28571" width="402.38095" y="911.5238" x="1365.61904" stroke="#2D2D2D" fill="#FFEBA2"/>
  <rect id="2550112d000f4ffb92e3d60fee8e1689-ao-8" height="57.14286" width="561.90476" y="1109.14284" x="1225.14285" stroke="#2D2D2D" fill="#FFEBA2"/>
  <rect id="2550112d000f4ffb92e3d60fee8e1689-ao-9" height="59.52381" width="430.95238" y="992.47618" x="722.7619" stroke="#2D2D2D" fill="#FFEBA2"/>
  <rect id="2550112d000f4ffb92e3d60fee8e1689-ao-10" height="133.33333" width="433.33333" y="975.80951" x="220.38095" stroke="#2D2D2D" fill="#FFEBA2"/>
  <rect id="2550112d000f4ffb92e3d60fee8e1689-ao-11" height="47.61905" width="300" y="901.99999" x="217.99999" stroke="#2D2D2D" fill="#FFEBA2"/>
  <rect id="2550112d000f4ffb92e3d60fee8e1689-ao-12" height="54.7619" width="295.23809" y="766.2857" x="184.66666" stroke="#2D2D2D" fill="#FFEBA2"/>
  <rect id="2550112d000f4ffb92e3d60fee8e1689-ao-13" height="66.66667" width="257.14286" y="828.19046" x="198.95237" stroke="#2D2D2D" fill="#FFEBA2"/>
  <rect id="2550112d000f4ffb92e3d60fee8e1689-ao-14" height="52.38095" width="385.71428" y="597.23808" x="644.19047" stroke="#2D2D2D" fill="#FFEBA2"/>
  <rect id="2550112d000f4ffb92e3d60fee8e1689-ao-15" height="121.42857" width="252.38095" y="601.99999" x="270.38095" stroke="#2D2D2D" fill="#FFEBA2"/>
  <rect id="2550112d000f4ffb92e3d60fee8e1689-ao-16" height="50" width="216.66667" y="773.42856" x="1117.99999" stroke="#2D2D2D" fill="#FFEBA2"/>
  
  <rect id="2550112d000f4ffb92e3d60fee8e1689-ao-18" height="54.7619" width="319.04762" y="832.95237" x="570.38095" stroke="#2D2D2D" fill="#FFEBA2"/>
 </g>
</svg>