<svg height="569" width="650" xmlns="http://www.w3.org/2000/svg">
 <!-- Created with Image Occlusion Enhanced -->
 <g>
  <title>Labels</title>
 </g>
 <g>
  <title>Masks</title>
  <rect fill="#FFEBA2" height="13.39286" id="3f5e6d2e70434dbea034da70cb71a276-ao-1" stroke="#2D2D2D" width="45.53571" x="51.78571" y="130.1071"/>
  <rect fill="#FFEBA2" height="25.89286" id="3f5e6d2e70434dbea034da70cb71a276-ao-2" stroke="#2D2D2D" width="43.75" x="19.64286" y="199.74996"/>
  <rect fill="#FFEBA2" height="21.42857" id="3f5e6d2e70434dbea034da70cb71a276-ao-3" stroke="#2D2D2D" width="51.78571" x="181.25" y="147.07139"/>
  <rect class="qshape" fill="#FF7E7E" height="31.25" id="3f5e6d2e70434dbea034da70cb71a276-ao-4" stroke="#2D2D2D" width="50" x="337.5" y="47.07139"/>
  <rect fill="#FFEBA2" height="25.89286" id="3f5e6d2e70434dbea034da70cb71a276-ao-5" stroke="#2D2D2D" width="33.92857" x="158.03571" y="264.92853"/>
  <rect fill="#FFEBA2" height="9.82143" id="3f5e6d2e70434dbea034da70cb71a276-ao-6" stroke="#2D2D2D" transform="rotate(-47.16106414794922 248.6607208251954,192.16069030761722) " width="93.75" x="201.78572" y="187.24996"/>
  <rect fill="#FFEBA2" height="13.39286" id="3f5e6d2e70434dbea034da70cb71a276-ao-7" stroke="#2D2D2D" width="46.42857" x="58.92857" y="302.42853"/>
  <rect fill="#FFEBA2" height="22.32143" id="3f5e6d2e70434dbea034da70cb71a276-ao-8" stroke="#2D2D2D" width="40.17857" x="121.42857" y="311.3571"/>
  <rect fill="#FFEBA2" height="14.28571" id="3f5e6d2e70434dbea034da70cb71a276-ao-9" stroke="#2D2D2D" width="76.78572" x="220.53571" y="322.96425"/>
  <rect fill="#FFEBA2" height="12.5" id="3f5e6d2e70434dbea034da70cb71a276-ao-10" stroke="#2D2D2D" width="33.03571" x="288.39286" y="244.39282"/>
  <rect fill="#FFEBA2" height="28.57143" id="3f5e6d2e70434dbea034da70cb71a276-ao-11" stroke="#2D2D2D" width="25" x="532.14286" y="277.42853"/>
  <rect fill="#FFEBA2" height="21.42857" id="3f5e6d2e70434dbea034da70cb71a276-ao-12" stroke="#2D2D2D" width="35.71429" x="432.14286" y="409.57139"/>
  <rect fill="#FFEBA2" height="32.14286" id="3f5e6d2e70434dbea034da70cb71a276-ao-13" stroke="#2D2D2D" width="17.85714" x="212.5" y="350.64282"/>
  <rect fill="#FFEBA2" height="9.82143" id="3f5e6d2e70434dbea034da70cb71a276-ao-14" stroke="#2D2D2D" width="28.57143" x="219.64286" y="418.49996"/>
  <rect fill="#FFEBA2" height="12.5" id="3f5e6d2e70434dbea034da70cb71a276-ao-15" stroke="#2D2D2D" width="49.10714" x="114.28571" y="449.74996"/>
  <rect fill="#FFEBA2" height="14.28571" id="3f5e6d2e70434dbea034da70cb71a276-ao-16" stroke="#2D2D2D" width="48.21429" x="69.64286" y="471.17853"/>
  <rect fill="#FFEBA2" height="28.57143" id="3f5e6d2e70434dbea034da70cb71a276-ao-17" stroke="#2D2D2D" width="29.46429" x="228.57143" y="441.71425"/>
  <rect fill="#FFEBA2" height="26.78571" id="3f5e6d2e70434dbea034da70cb71a276-ao-18" stroke="#2D2D2D" width="40.17857" x="287.5" y="428.32139"/>
  <rect fill="#FFEBA2" height="28.57143" id="3f5e6d2e70434dbea034da70cb71a276-ao-19" stroke="#2D2D2D" width="46.42857" x="275" y="452.42853"/>
  <rect fill="#FFEBA2" height="17.85714" id="3f5e6d2e70434dbea034da70cb71a276-ao-20" stroke="#2D2D2D" width="114.28571" x="129.46429" y="516.71425"/>
  <rect fill="#FFEBA2" height="9.82143" id="3f5e6d2e70434dbea034da70cb71a276-ao-21" stroke="#2D2D2D" width="43.75" x="7.14286" y="539.03568"/>
  <rect fill="#FFEBA2" height="10.71429" id="3f5e6d2e70434dbea034da70cb71a276-ao-22" stroke="#2D2D2D" width="41.07143" x="365.17857" y="489.92853"/>
 </g>
</svg>