<svg height="300" width="581" xmlns="http://www.w3.org/2000/svg">
 <!-- Created with Image Occlusion Enhanced -->
 <g>
  <title>Labels</title>
 </g>
 <g>
  <title>Masks</title>
  <rect fill="#FFEBA2" height="8.76289" id="47c63b2620154709a21d2b3b51f08b9c-ao-1" stroke="#2D2D2D" transform="rotate(38.659793853759766 150.4432830810547,27.061855316162113) " width="82.47423" x="109.20617" y="22.68041"/>
  <rect fill="#FFEBA2" height="8.76289" id="47c63b2620154709a21d2b3b51f08b9c-ao-2" stroke="#2D2D2D" transform="rotate(-26.927669525146484 67.45359802246095,43.55670547485352) " width="65.97938" x="34.46391" y="39.17526"/>
  <rect fill="#FFEBA2" height="7.73196" id="47c63b2620154709a21d2b3b51f08b9c-ao-3" stroke="#2D2D2D" transform="rotate(14.349308013916016 207.4020385742186,75.51546478271486) " width="58.24742" x="178.27834" y="71.64948"/>
  <rect fill="#FFEBA2" height="9.27835" id="47c63b2620154709a21d2b3b51f08b9c-ao-4" stroke="#2D2D2D" transform="rotate(41.49645233154297 197.60824584960943,89.17526245117185) " width="46.90722" x="174.15463" y="84.53608"/>
  <rect fill="#FFEBA2" height="11.34021" id="47c63b2620154709a21d2b3b51f08b9c-ao-5" stroke="#2D2D2D" transform="rotate(27.645963668823242 161.78349304199216,103.09279632568361) " width="52.57732" x="135.49483" y="97.42268"/>
  <rect fill="#FFEBA2" height="10.30928" id="47c63b2620154709a21d2b3b51f08b9c-ao-6" stroke="#2D2D2D" transform="rotate(18.82471466064453 179.05154418945304,124.74227142333984) " width="65.46392" x="146.31958" y="119.58763"/>
  <rect fill="#FFEBA2" height="18.04123" id="47c63b2620154709a21d2b3b51f08b9c-ao-7" stroke="#2D2D2D" width="50.51546" x="278.27834" y="137.62887"/>
  <rect fill="#FFEBA2" height="18.5567" id="47c63b2620154709a21d2b3b51f08b9c-ao-8" stroke="#2D2D2D" width="43.29897" x="387.04123" y="186.08247"/>
  <rect fill="#FFEBA2" height="18.04124" id="47c63b2620154709a21d2b3b51f08b9c-ao-9" stroke="#2D2D2D" width="62.8866" x="447.86597" y="186.59794"/>
  <rect fill="#FFEBA2" height="36.44899" id="47c63b2620154709a21d2b3b51f08b9c-ao-10" stroke="#2D2D2D" stroke-dasharray="null" stroke-linecap="null" stroke-linejoin="null" transform="rotate(-56.441036224365234 208.4091491699219,152.48240661621094) " width="12.8866" x="201.96585" y="134.25793"/>
 </g>
</svg>