<svg xmlns="http://www.w3.org/2000/svg" width="1698" height="1926.0000000000002">
 <!-- Created with Image Occlusion Enhanced -->
 <g>
  <title>Labels</title>
 </g>
 <g>
  <title>Masks</title>
  <rect id="5354435dcec5453c9657d5ebb1d6a0f7-ao-1" height="238.63637" width="254.54546" y="1.27271" x="265.63638" stroke="#2D2D2D" fill="#FFEBA2"/>
  <rect id="5354435dcec5453c9657d5ebb1d6a0f7-ao-2" height="113.63636" width="222.72727" y="344.45453" x="267.9091" stroke="#2D2D2D" fill="#FFEBA2"/>
  <rect id="5354435dcec5453c9657d5ebb1d6a0f7-ao-3" height="93.18182" width="318.18182" y="321.72726" x="506.54547" stroke="#2D2D2D" fill="#FFEBA2"/>
  <rect id="5354435dcec5453c9657d5ebb1d6a0f7-ao-4" height="56.81818" width="354.54546" y="467.18181" x="667.90911" stroke="#2D2D2D" fill="#FFEBA2"/>
  <rect id="5354435dcec5453c9657d5ebb1d6a0f7-ao-5" height="227.27273" width="279.54546" y="596.72726" x="124.72728" stroke="#2D2D2D" fill="#FFEBA2"/>
  <rect id="5354435dcec5453c9657d5ebb1d6a0f7-ao-6" height="150" width="163.63636" y="1055.81817" x="454.27274" stroke="#2D2D2D" fill="#FFEBA2"/>
  <rect id="5354435dcec5453c9657d5ebb1d6a0f7-ao-7" height="77.27273" width="200" y="853.54545" x="886.09093" stroke="#2D2D2D" fill="#FFEBA2"/>
  <rect id="5354435dcec5453c9657d5ebb1d6a0f7-ao-8" height="131.81818" width="195.45455" y="930.81817" x="724.72729" stroke="#2D2D2D" fill="#FFEBA2"/>
  <rect id="5354435dcec5453c9657d5ebb1d6a0f7-ao-9" height="70.45455" width="265.90909" y="1017.18181" x="961.09093" stroke="#2D2D2D" fill="#FFEBA2"/>
  <rect id="5354435dcec5453c9657d5ebb1d6a0f7-ao-10" height="163.63636" width="159.09091" y="1239.90908" x="845.18183" stroke="#2D2D2D" fill="#FFEBA2"/>
  <rect id="5354435dcec5453c9657d5ebb1d6a0f7-ao-11" height="143.18182" width="218.18182" y="1148.99999" x="552.00001" stroke="#2D2D2D" fill="#FFEBA2"/>
  <rect id="5354435dcec5453c9657d5ebb1d6a0f7-ao-12" height="95.45455" width="211.36364" y="1367.18181" x="311.09092" stroke="#2D2D2D" fill="#FFEBA2"/>
  <rect id="5354435dcec5453c9657d5ebb1d6a0f7-ao-13" height="145.45455" width="206.81818" y="1494.45454" x="336.09092" stroke="#2D2D2D" fill="#FFEBA2"/>
  <rect id="5354435dcec5453c9657d5ebb1d6a0f7-ao-14" height="218.18182" width="161.36364" y="1671.72727" x="529.27274" stroke="#2D2D2D" fill="#FFEBA2"/>
  <rect id="5354435dcec5453c9657d5ebb1d6a0f7-ao-15" height="93.18182" width="322.72727" y="1662.63636" x="715.63638" stroke="#2D2D2D" fill="#FFEBA2"/>
  <rect id="5354435dcec5453c9657d5ebb1d6a0f7-ao-16" height="213.63637" width="302.27273" y="1560.36363" x="1295.18184" stroke="#2D2D2D" fill="#FF7E7E" class="qshape"/>
  <rect id="5354435dcec5453c9657d5ebb1d6a0f7-ao-17" height="109.09091" width="222.72727" y="921.72726" x="1411.09093" stroke="#2D2D2D" fill="#FFEBA2"/>
  <rect id="5354435dcec5453c9657d5ebb1d6a0f7-ao-18" height="70.45455" width="152.27273" y="778.54545" x="1477.00002" stroke="#2D2D2D" fill="#FFEBA2"/>
  <rect id="5354435dcec5453c9657d5ebb1d6a0f7-ao-19" height="40.90909" width="220.45455" y="658.0909" x="1488.36366" stroke="#2D2D2D" fill="#FFEBA2"/>
  <rect id="5354435dcec5453c9657d5ebb1d6a0f7-ao-20" height="136.36364" width="311.36364" y="451.27272" x="1356.54547" stroke="#2D2D2D" fill="#FFEBA2"/>
  <rect id="5354435dcec5453c9657d5ebb1d6a0f7-ao-21" height="138.63636" width="234.09091" y="508.0909" x="1106.54547" stroke="#2D2D2D" fill="#FFEBA2"/>
  <rect id="5354435dcec5453c9657d5ebb1d6a0f7-ao-22" height="43.18182" width="261.36364" y="780.81817" x="1188.36366" stroke="#2D2D2D" fill="#FFEBA2"/>
  <rect id="5354435dcec5453c9657d5ebb1d6a0f7-ao-23" height="145.45455" width="127.27273" y="771.72726" x="1074.72729" stroke="#2D2D2D" fill="#FFEBA2"/>
  <rect id="5354435dcec5453c9657d5ebb1d6a0f7-ao-24" height="200" width="272.72727" y="619.45453" x="706.54547" stroke="#2D2D2D" fill="#FFEBA2"/>
  <rect id="5354435dcec5453c9657d5ebb1d6a0f7-ao-25" height="56.81818" width="168.18182" y="560.36363" x="388.36365" stroke="#2D2D2D" fill="#FFEBA2"/>
  <rect id="5354435dcec5453c9657d5ebb1d6a0f7-ao-26" height="147.72727" width="90.90909" y="569.45453" x="558.8182" stroke="#2D2D2D" fill="#FFEBA2"/>
  <rect id="5354435dcec5453c9657d5ebb1d6a0f7-ao-27" height="150" width="220.45455" y="1635.36363" x="133.81819" stroke="#2D2D2D" fill="#FFEBA2"/>
 </g>
</svg>