<svg xmlns="http://www.w3.org/2000/svg" width="1728" height="1076">
 <!-- Created with Image Occlusion Enhanced -->
 <g>
  <title>Labels</title>
 </g>
 <g>
  <title>Masks</title>
  <g id="55d70af161c8449b9c87e90a141f288f-ao-1">
   <rect fill="#FFEBA2" stroke="#2D2D2D" x="885.74995" y="182.75002" width="203.75" height="55" transform="rotate(30.88108253479004 987.6249389648438,210.25003051757804) "/>
   <rect fill="#FFEBA2" x="1028.83268" y="313.96499" width="238.66514" height="55" transform="rotate(3.990866184234619 1148.165283203126,341.4650268554692) " stroke="#2D2D2D"/>
   <rect fill="#FFEBA2" stroke="#2D2D2D" x="1188.87501" y="127.74999" width="203.75" height="55" transform="rotate(3.9451565742492676 1290.75,155.24999999999983) "/>
   <rect fill="#FFEBA2" x="615.06038" y="202.31809" width="132.36719" height="78.7339" transform="rotate(0.6644526124000549 681.2439575195382,241.68505859374815) " stroke="#2D2D2D"/>
   <rect fill="#FFEBA2" stroke="#2D2D2D" x="892.62501" y="23.99999" width="203.75" height="55" transform="rotate(30.88108253479004 994.5,51.499992370605604) "/>
   <rect fill="#FFEBA2" stroke="#2D2D2D" x="781.37501" y="248.99999" width="203.75" height="55" transform="rotate(30.88108253479004 883.2500000000002,276.4999999999999) "/>
   <rect fill="#FFEBA2" x="760.66086" y="121.6968" width="91.38089" height="94.93932" transform="rotate(0.6644526124000549 806.3513183593761,169.16644287109412) " stroke="#2D2D2D"/>
  </g>
  <g id="55d70af161c8449b9c87e90a141f288f-ao-2">
   <rect fill="#FFEBA2" x="629.37367" y="407.91985" width="271.61577" height="44.73979" transform="rotate(8.530717849731445 765.1815185546885,430.28976440429676) " stroke="#2D2D2D"/>
   <rect fill="#FFEBA2" x="969.08258" y="432.71221" width="238.66514" height="86.17423" transform="rotate(3.990866184234619 1088.4151611328105,475.79934692382824) " stroke="#2D2D2D"/>
  </g>
  
 </g>
</svg>