<svg xmlns="http://www.w3.org/2000/svg" width="984" height="1248">
 <!-- Created with Image Occlusion Enhanced -->
 <g>
  <title>Labels</title>
 </g>
 <g>
  <title>Masks</title>
  <rect id="6369dc5ea39e42eb8bc93906400592f8-ao-1" height="21.81818" width="114.54545" y="566.54539" x="559.63633" stroke="#2D2D2D" fill="#FFEBA2"/>
  <rect id="6369dc5ea39e42eb8bc93906400592f8-ao-2" height="18.18182" width="54.54545" y="602.90902" x="619.63633" stroke="#2D2D2D" fill="#FFEBA2"/>
  <rect id="6369dc5ea39e42eb8bc93906400592f8-ao-3" height="20" width="69.09091" y="762.90902" x="354.18179" stroke="#2D2D2D" fill="#FFEBA2"/>
  <rect id="6369dc5ea39e42eb8bc93906400592f8-ao-4" height="16.36364" width="69.09091" y="771.99993" x="257.81815" stroke="#2D2D2D" fill="#FFEBA2"/>
  <rect id="6369dc5ea39e42eb8bc93906400592f8-ao-5" height="21.81818" width="41.81818" y="753.81811" x="201.45452" stroke="#2D2D2D" fill="#FFEBA2"/>
  <rect id="6369dc5ea39e42eb8bc93906400592f8-ao-6" height="18.18182" width="69.09091" y="702.90902" x="348.72724" stroke="#2D2D2D" fill="#FFEBA2"/>
  <rect id="6369dc5ea39e42eb8bc93906400592f8-ao-7" height="23.63636" width="61.81818" y="675.6363" x="266.90906" stroke="#2D2D2D" fill="#FFEBA2"/>
  <rect id="6369dc5ea39e42eb8bc93906400592f8-ao-8" height="20" width="45.45454" y="815.63629" x="232.36361" stroke="#2D2D2D" fill="#FFEBA2"/>
  <rect id="6369dc5ea39e42eb8bc93906400592f8-ao-9" height="21.81818" width="74.54545" y="833.81811" x="177.81816" stroke="#2D2D2D" fill="#FFEBA2"/>
  <rect id="6369dc5ea39e42eb8bc93906400592f8-ao-10" height="16.36364" width="58.18182" y="884.7272" x="201.45452" stroke="#2D2D2D" fill="#FF7E7E" class="qshape"/>
  <rect id="6369dc5ea39e42eb8bc93906400592f8-ao-11" height="21.81818" width="50.90909" y="877.45447" x="299.63633" stroke="#2D2D2D" fill="#FFEBA2"/>
  <rect id="6369dc5ea39e42eb8bc93906400592f8-ao-12" height="18.18182" width="76.36363" y="944.7272" x="270.54543" stroke="#2D2D2D" fill="#FFEBA2"/>
  <rect id="6369dc5ea39e42eb8bc93906400592f8-ao-13" height="23.63636" width="70.90909" y="1035.63629" x="377.81815" stroke="#2D2D2D" fill="#FFEBA2"/>
  <rect id="6369dc5ea39e42eb8bc93906400592f8-ao-14" height="21.81818" width="54.54545" y="995.63629" x="319.63633" stroke="#2D2D2D" fill="#FFEBA2"/>
  <rect id="6369dc5ea39e42eb8bc93906400592f8-ao-15" height="16.36364" width="63.63636" y="1115.63629" x="321.45452" stroke="#2D2D2D" fill="#FFEBA2"/>
 </g>
</svg>