<svg height="972" width="1350" xmlns="http://www.w3.org/2000/svg">
 <!-- Created with Image Occlusion Enhanced -->
 <g>
  <title>Labels</title>
 </g>
 <g>
  <title>Masks</title>
  <rect fill="#FFEBA2" height="27.05882" id="6d8ba924f568465e8799c8d9258debe0-ao-1" stroke="#2D2D2D" width="151.76471" x="758.23529" y="666.82351"/>
  <rect fill="#FFEBA2" height="23.52941" id="6d8ba924f568465e8799c8d9258debe0-ao-2" stroke="#2D2D2D" width="176.47059" x="586.47059" y="724.47057"/>
  <rect fill="#FFEBA2" height="48.23529" id="6d8ba924f568465e8799c8d9258debe0-ao-3" stroke="#2D2D2D" width="343.52941" x="658.23529" y="402.11763"/>
  <rect fill="#FFEBA2" height="20" id="6d8ba924f568465e8799c8d9258debe0-ao-4" stroke="#2D2D2D" width="130.58824" x="1008.82353" y="609.17645"/>
  <rect fill="#FFEBA2" height="22.35294" id="6d8ba924f568465e8799c8d9258debe0-ao-5" stroke="#2D2D2D" width="97.64706" x="984.11765" y="724.47057"/>
  <rect class="qshape" fill="#FF7E7E" height="22.35294" id="6d8ba924f568465e8799c8d9258debe0-ao-6" stroke="#2D2D2D" width="43.52941" x="947.64706" y="285.64704"/>
  <rect fill="#FFEBA2" height="20" id="6d8ba924f568465e8799c8d9258debe0-ao-7" stroke="#2D2D2D" width="38.82353" x="937.05882" y="871.52939"/>
  <rect fill="#FFEBA2" height="21.17647" id="6d8ba924f568465e8799c8d9258debe0-ao-8" stroke="#2D2D2D" width="64.70588" x="666.47059" y="767.99998"/>
  <rect fill="#FFEBA2" height="14.11765" id="6d8ba924f568465e8799c8d9258debe0-ao-9" stroke="#2D2D2D" width="44.70588" x="1054.70588" y="579.76468"/>
  <rect fill="#FFEBA2" height="14.11765" id="6d8ba924f568465e8799c8d9258debe0-ao-10" stroke="#2D2D2D" width="28.23529" x="433.52941" y="693.88233"/>
  <rect fill="#FFEBA2" height="15.29412" id="6d8ba924f568465e8799c8d9258debe0-ao-11" stroke="#2D2D2D" width="55.29412" x="928.82353" y="730.35292"/>
  <rect fill="#FFEBA2" height="24.70588" id="6d8ba924f568465e8799c8d9258debe0-ao-12" stroke="#2D2D2D" width="50.58824" x="182.94118" y="916.23527"/>
  <rect fill="#FFEBA2" height="11.76471" id="6d8ba924f568465e8799c8d9258debe0-ao-13" stroke="#2D2D2D" width="47.05882" x="15.88235" y="760.94115"/>
  <rect fill="#FFEBA2" height="14.11765" id="6d8ba924f568465e8799c8d9258debe0-ao-14" stroke="#2D2D2D" width="41.17647" x="213.52941" y="784.47057"/>
  <rect fill="#FFEBA2" height="16.47059" id="6d8ba924f568465e8799c8d9258debe0-ao-15" stroke="#2D2D2D" width="43.52941" x="453.52941" y="842.11763"/>
  <rect fill="#FFEBA2" height="20" id="6d8ba924f568465e8799c8d9258debe0-ao-16" stroke="#2D2D2D" width="63.52941" x="1037.05882" y="912.70586"/>
 </g>
</svg>