<svg xmlns="http://www.w3.org/2000/svg" width="1702" height="1788.0000000000002">
 <!-- Created with Image Occlusion Enhanced -->
 <g>
  <title>Labels</title>
 </g>
 <g>
  <title>Masks</title>
  <rect id="8e7dbd73a0404befa12123c838e4fd21-ao-1" height="47.91667" width="143.75" y="12.00002" x="337.58326" stroke="#2D2D2D" fill="#FFEBA2"/>
  <rect id="8e7dbd73a0404befa12123c838e4fd21-ao-2" height="33.33333" width="254.16667" y="266.16669" x="152.16659" stroke="#2D2D2D" fill="#FFEBA2"/>
  <rect id="8e7dbd73a0404befa12123c838e4fd21-ao-3" height="25" width="116.66667" y="330.75002" x="293.83326" stroke="#2D2D2D" fill="#FFEBA2"/>
  <rect id="8e7dbd73a0404befa12123c838e4fd21-ao-4" height="25" width="83.33333" y="455.75003" x="388.13151" stroke="#2D2D2D" fill="#FFEBA2"/>
  <rect id="8e7dbd73a0404befa12123c838e4fd21-ao-5" height="27.08333" width="77.08333" y="462.00003" x="547.99993" stroke="#2D2D2D" fill="#FFEBA2"/>
  <rect id="8e7dbd73a0404befa12123c838e4fd21-ao-6" height="29.16667" width="141.66667" y="572.41669" x="429.24993" stroke="#2D2D2D" fill="#FFEBA2"/>
  <rect id="8e7dbd73a0404befa12123c838e4fd21-ao-7" height="31.25" width="191.66667" y="514.08336" x="322.99993" stroke="#2D2D2D" fill="#FFEBA2"/>
  <rect id="8e7dbd73a0404befa12123c838e4fd21-ao-8" height="20.83333" width="83.33333" y="757.83336" x="75.08326" stroke="#2D2D2D" fill="#FFEBA2"/>
  <rect id="8e7dbd73a0404befa12123c838e4fd21-ao-9" height="31.25" width="170.83334" y="834.9167" x="22.99992" stroke="#2D2D2D" fill="#FFEBA2"/>
  <rect id="8e7dbd73a0404befa12123c838e4fd21-ao-10" height="25" width="164.58334" y="932.83336" x="54.24992" stroke="#2D2D2D" fill="#FFEBA2"/>
  <rect id="8e7dbd73a0404befa12123c838e4fd21-ao-11" height="29.16667" width="131.25" y="995.33337" x="222.99992" stroke="#2D2D2D" fill="#FFEBA2"/>
  <rect id="8e7dbd73a0404befa12123c838e4fd21-ao-12" height="25" width="141.66667" y="1064.08337" x="227.16659" stroke="#2D2D2D" fill="#FFEBA2"/>
  <rect id="8e7dbd73a0404befa12123c838e4fd21-ao-13" height="41.66667" width="327.08334" y="1128.6667" x="131.33326" stroke="#2D2D2D" fill="#FFEBA2"/>
  <rect id="8e7dbd73a0404befa12123c838e4fd21-ao-15" height="27.08333" width="208.33334" y="1284.9167" x="195.91659" stroke="#2D2D2D" fill="#FFEBA2"/>
  <rect id="8e7dbd73a0404befa12123c838e4fd21-ao-17" height="33.33333" width="170.83334" y="1428.6667" x="281.33326" stroke="#2D2D2D" fill="#FFEBA2"/>
  <rect id="8e7dbd73a0404befa12123c838e4fd21-ao-18" height="27.08333" width="189.58334" y="1499.50004" x="304.24993" stroke="#2D2D2D" fill="#FFEBA2"/>
  <rect id="8e7dbd73a0404befa12123c838e4fd21-ao-19" height="27.08333" width="150" y="1564.08337" x="368.83326" stroke="#2D2D2D" fill="#FFEBA2"/>
  <rect id="8e7dbd73a0404befa12123c838e4fd21-ao-20" height="33.33333" width="143.75" y="1628.66671" x="406.33326" stroke="#2D2D2D" fill="#FFEBA2"/>
  <rect id="8e7dbd73a0404befa12123c838e4fd21-ao-25" height="35.41667" width="302.08334" y="1553.6667" x="829.24993" stroke="#2D2D2D" fill="#FFEBA2"/>
  <rect id="8e7dbd73a0404befa12123c838e4fd21-ao-26" height="33.33333" width="275" y="1501.58337" x="868.83326" stroke="#2D2D2D" fill="#FFEBA2"/>
  <rect id="8e7dbd73a0404befa12123c838e4fd21-ao-30" height="25" width="127.08333" y="1284.9167" x="610.49993" stroke="#2D2D2D" fill="#FFEBA2"/>
  <rect id="8e7dbd73a0404befa12123c838e4fd21-ao-31" height="37.5" width="216.66667" y="1184.9167" x="604.24993" stroke="#2D2D2D" fill="#FFEBA2"/>
  <rect id="8e7dbd73a0404befa12123c838e4fd21-ao-33" height="33.33333" width="122.91667" y="1087.00003" x="652.1666" stroke="#2D2D2D" fill="#FFEBA2"/>
  <rect id="8e7dbd73a0404befa12123c838e4fd21-ao-35" height="29.16667" width="100" y="941.1667" x="679.24993" stroke="#2D2D2D" fill="#FFEBA2"/>
  <rect id="8e7dbd73a0404befa12123c838e4fd21-ao-36" height="27.08333" width="77.08333" y="905.75003" x="568.83326" stroke="#2D2D2D" fill="#FFEBA2"/>
  <rect id="8e7dbd73a0404befa12123c838e4fd21-ao-37" height="35.41667" width="66.66667" y="853.6667" x="718.83326" stroke="#2D2D2D" fill="#FFEBA2"/>
  <rect id="8e7dbd73a0404befa12123c838e4fd21-ao-39" height="37.5" width="112.5" y="1087.00003" x="1097.99993" stroke="#2D2D2D" fill="#FFEBA2"/>
  <rect id="8e7dbd73a0404befa12123c838e4fd21-ao-41" height="33.33333" width="118.75" y="1030.75003" x="1154.24993" stroke="#2D2D2D" fill="#FFEBA2"/>
  <rect id="8e7dbd73a0404befa12123c838e4fd21-ao-42" height="29.16667" width="162.5" y="984.9167" x="1204.24994" stroke="#2D2D2D" fill="#FFEBA2"/>
  <rect id="8e7dbd73a0404befa12123c838e4fd21-ao-43" height="35.41667" width="133.33333" y="918.25003" x="1310.49994" stroke="#2D2D2D" fill="#FFEBA2"/>
  <rect id="8e7dbd73a0404befa12123c838e4fd21-ao-44" height="29.16667" width="62.5" y="899.50003" x="1510.49994" stroke="#2D2D2D" fill="#FFEBA2"/>
  <rect id="8e7dbd73a0404befa12123c838e4fd21-ao-45" height="39.58333" width="168.75" y="816.1667" x="1529.24994" stroke="#2D2D2D" fill="#FFEBA2"/>
  <rect id="8e7dbd73a0404befa12123c838e4fd21-ao-46" height="37.5" width="116.66667" y="741.1667" x="1566.74994" stroke="#2D2D2D" fill="#FFEBA2"/>
  <rect id="8e7dbd73a0404befa12123c838e4fd21-ao-47" height="31.25" width="170.83334" y="780.75003" x="856.33326" stroke="#2D2D2D" fill="#FFEBA2"/>
  <rect id="8e7dbd73a0404befa12123c838e4fd21-ao-48" height="29.16667" width="152.08334" y="812.00003" x="1050.08327" stroke="#2D2D2D" fill="#FFEBA2"/>
  <rect id="8e7dbd73a0404befa12123c838e4fd21-ao-49" height="29.16667" width="208.33334" y="774.50003" x="602.1666" stroke="#2D2D2D" fill="#FFEBA2"/>
  <rect id="8e7dbd73a0404befa12123c838e4fd21-ao-50" height="33.33333" width="200" y="768.25003" x="337.58326" stroke="#2D2D2D" fill="#FFEBA2"/>
  <rect id="8e7dbd73a0404befa12123c838e4fd21-ao-51" height="31.25" width="175" y="709.9167" x="489.66659" stroke="#2D2D2D" fill="#FFEBA2"/>
  <rect id="8e7dbd73a0404befa12123c838e4fd21-ao-52" height="33.33333" width="114.58333" y="634.91669" x="370.91659" stroke="#2D2D2D" fill="#FFEBA2"/>
  <rect id="8e7dbd73a0404befa12123c838e4fd21-ao-53" height="33.33333" width="154.16667" y="662.00003" x="595.9166" stroke="#2D2D2D" fill="#FFEBA2"/>
  <rect id="8e7dbd73a0404befa12123c838e4fd21-ao-54" height="25" width="162.5" y="716.1667" x="933.4166" stroke="#2D2D2D" fill="#FFEBA2"/>
  <rect id="8e7dbd73a0404befa12123c838e4fd21-ao-57" height="29.16667" width="170.83334" y="89.08335" x="710.49993" stroke="#2D2D2D" fill="#FFEBA2"/>
  <rect id="8e7dbd73a0404befa12123c838e4fd21-ao-58" height="27.08333" width="97.91667" y="128.66669" x="779.24993" stroke="#2D2D2D" fill="#FFEBA2"/>
  <rect id="8e7dbd73a0404befa12123c838e4fd21-ao-59" height="31.25" width="135.41667" y="168.25002" x="797.99993" stroke="#2D2D2D" fill="#FFEBA2"/>
  <rect id="8e7dbd73a0404befa12123c838e4fd21-ao-60" height="22.91667" width="114.58333" y="216.16669" x="831.33326" stroke="#2D2D2D" fill="#FFEBA2"/>
  <rect id="8e7dbd73a0404befa12123c838e4fd21-ao-65" height="25" width="118.75" y="434.91669" x="1012.58327" stroke="#2D2D2D" fill="#FFEBA2"/>
  <rect id="8e7dbd73a0404befa12123c838e4fd21-ao-67" height="25" width="168.75" y="514.08336" x="1064.6666" stroke="#2D2D2D" fill="#FFEBA2"/>
  <rect id="8e7dbd73a0404befa12123c838e4fd21-ao-68" height="35.41667" width="185.41667" y="553.66669" x="1091.74993" stroke="#2D2D2D" fill="#FFEBA2"/>
  <rect id="8e7dbd73a0404befa12123c838e4fd21-ao-70" height="27.08333" width="137.5" y="543.25003" x="1312.58327" stroke="#2D2D2D" fill="#FFEBA2"/>
  <rect id="8e7dbd73a0404befa12123c838e4fd21-ao-71" height="31.25" width="81.25" y="395.33336" x="345.91659" stroke="#2D2D2D" fill="#FFEBA2"/>
  <rect id="8e7dbd73a0404befa12123c838e4fd21-ao-72" height="35.41667" width="212.5" y="209.91669" x="181.33326" stroke="#2D2D2D" fill="#FFEBA2"/>
  <rect id="8e7dbd73a0404befa12123c838e4fd21-ao-73" height="22.91667" width="127.08333" y="149.50002" x="260.49992" stroke="#2D2D2D" fill="#FFEBA2"/>
  <rect id="8e7dbd73a0404befa12123c838e4fd21-ao-74" height="33.33333" width="118.75" y="74.50002" x="295.91659" stroke="#2D2D2D" fill="#FFEBA2"/>
  <rect id="8e7dbd73a0404befa12123c838e4fd21-ao-14" height="33.33333" width="125" y="22.41669" x="497.99993" stroke="#2D2D2D" fill="#FFEBA2"/>
  <rect id="8e7dbd73a0404befa12123c838e4fd21-ao-16" height="27.08333" width="125" y="93.25002" x="520.91659" stroke="#2D2D2D" fill="#FFEBA2"/>
  <rect id="8e7dbd73a0404befa12123c838e4fd21-ao-21" height="33.33333" width="95.83333" y="37.00002" x="689.6666" stroke="#2D2D2D" fill="#FFEBA2"/>
  <rect id="8e7dbd73a0404befa12123c838e4fd21-ao-22" height="27.08333" width="220.83334" y="262.00002" x="856.33326" stroke="#2D2D2D" fill="#FFEBA2"/>
  <rect id="8e7dbd73a0404befa12123c838e4fd21-ao-23" height="18.75" width="156.25" y="303.66669" x="870.9166" stroke="#2D2D2D" fill="#FFEBA2"/>
  <rect id="8e7dbd73a0404befa12123c838e4fd21-ao-24" height="22.91667" width="127.08333" y="345.33336" x="916.74993" stroke="#2D2D2D" fill="#FFEBA2"/>
  <rect id="8e7dbd73a0404befa12123c838e4fd21-ao-27" height="22.91667" width="145.83333" y="393.25002" x="991.74993" stroke="#2D2D2D" fill="#FFEBA2"/>
  <rect id="8e7dbd73a0404befa12123c838e4fd21-ao-28" height="25" width="110.41667" y="474.50003" x="1031.33327" stroke="#2D2D2D" fill="#FFEBA2"/>
  <rect id="8e7dbd73a0404befa12123c838e4fd21-ao-29" height="29.16667" width="137.5" y="607.83336" x="1125.08327" stroke="#2D2D2D" fill="#FFEBA2"/>
  <rect id="8e7dbd73a0404befa12123c838e4fd21-ao-32" height="29.16667" width="85.41667" y="937.00003" x="862.58326" stroke="#2D2D2D" fill="#FFEBA2"/>
  <rect id="8e7dbd73a0404befa12123c838e4fd21-ao-34" height="22.91667" width="181.25" y="1034.9167" x="766.74993" stroke="#2D2D2D" fill="#FFEBA2"/>
  <rect id="8e7dbd73a0404befa12123c838e4fd21-ao-38" height="33.33333" width="127.08333" y="1153.6667" x="954.24993" stroke="#2D2D2D" fill="#FFEBA2"/>
  <rect id="8e7dbd73a0404befa12123c838e4fd21-ao-40" height="29.16667" width="141.66667" y="1255.75003" x="895.9166" stroke="#2D2D2D" fill="#FFEBA2"/>
  <rect id="8e7dbd73a0404befa12123c838e4fd21-ao-55" height="20.83333" width="256.25" y="1330.75004" x="893.83327" stroke="#2D2D2D" fill="#FFEBA2"/>
  <rect id="8e7dbd73a0404befa12123c838e4fd21-ao-56" height="20.83333" width="129.16667" y="1380.75004" x="908.4166" stroke="#2D2D2D" fill="#FFEBA2"/>
  <rect id="8e7dbd73a0404befa12123c838e4fd21-ao-61" height="27.08333" width="308.33334" y="1445.33337" x="916.74993" stroke="#2D2D2D" fill="#FFEBA2"/>
  <rect id="8e7dbd73a0404befa12123c838e4fd21-ao-62" height="29.16667" width="135.41667" y="1614.08337" x="787.58326" stroke="#2D2D2D" fill="#FFEBA2"/>
  <rect id="8e7dbd73a0404befa12123c838e4fd21-ao-63" height="29.16667" width="166.66667" y="1672.41671" x="743.83326" stroke="#2D2D2D" fill="#FFEBA2"/>
  <rect id="8e7dbd73a0404befa12123c838e4fd21-ao-64" height="20.83333" width="162.5" y="1724.50004" x="597.99993" stroke="#2D2D2D" fill="#FFEBA2"/>
  <rect id="8e7dbd73a0404befa12123c838e4fd21-ao-66" height="25" width="208.33334" y="1693.25004" x="333.41659" stroke="#2D2D2D" fill="#FF7E7E" class="qshape"/>
  <rect id="8e7dbd73a0404befa12123c838e4fd21-ao-69" height="27.08333" width="122.91667" y="1359.9167" x="316.74993" stroke="#2D2D2D" fill="#FFEBA2"/>
  <rect id="8e7dbd73a0404befa12123c838e4fd21-ao-75" height="31.25" width="110.41667" y="1209.9167" x="300.08326" stroke="#2D2D2D" fill="#FFEBA2"/>
 </g>
</svg>