<svg height="367" width="629" xmlns="http://www.w3.org/2000/svg">
 <!-- Created with Image Occlusion Enhanced -->
 <g>
  <title>Labels</title>
 </g>
 <g>
  <title>Masks</title>
  <rect fill="#FFEBA2" height="14.28571" id="a0f6d723d11c4689b4398e0844669393-ao-1" stroke="#2D2D2D" width="40.47619" x="176.35717" y="93.71429"/>
  <rect fill="#FFEBA2" height="11.30952" id="a0f6d723d11c4689b4398e0844669393-ao-2" stroke="#2D2D2D" width="27.38095" x="88.85716" y="166.33334"/>
  <rect fill="#FFEBA2" height="13.69048" id="a0f6d723d11c4689b4398e0844669393-ao-3" stroke="#2D2D2D" width="38.69048" x="170.40478" y="248.47619"/>
  <rect fill="#FFEBA2" height="16.66667" id="a0f6d723d11c4689b4398e0844669393-ao-4" stroke="#2D2D2D" width="36.90476" x="247.78574" y="276.45239"/>
  <rect fill="#FFEBA2" height="16.07143" id="a0f6d723d11c4689b4398e0844669393-ao-5" stroke="#2D2D2D" width="29.16667" x="298.97622" y="315.7381"/>
  <rect fill="#FFEBA2" height="12.5" id="a0f6d723d11c4689b4398e0844669393-ao-6" stroke="#2D2D2D" width="26.19048" x="535.28575" y="291.33334"/>
  <rect fill="#FFEBA2" height="10.71429" id="a0f6d723d11c4689b4398e0844669393-ao-7" stroke="#2D2D2D" width="42.26191" x="534.69051" y="272.88096"/>
  <rect fill="#FFEBA2" height="11.90476" id="a0f6d723d11c4689b4398e0844669393-ao-8" stroke="#2D2D2D" width="36.90476" x="525.76194" y="243.71429"/>
  <rect fill="#FFEBA2" height="12.5" id="a0f6d723d11c4689b4398e0844669393-ao-9" stroke="#2D2D2D" width="44.04762" x="510.28575" y="128.2381"/>
  
  <rect fill="#FFEBA2" height="12.5" id="a0f6d723d11c4689b4398e0844669393-ao-11" stroke="#2D2D2D" width="57.7381" x="499.57146" y="174.07143"/>
  <rect fill="#FFEBA2" height="11.30952" id="a0f6d723d11c4689b4398e0844669393-ao-12" stroke="#2D2D2D" width="37.5" x="443.61908" y="180.61905"/>
  <rect fill="#FFEBA2" height="8.92857" id="a0f6d723d11c4689b4398e0844669393-ao-13" stroke="#2D2D2D" width="26.78572" x="454.33336" y="243.11905"/>
  <rect fill="#FFEBA2" height="12.5" id="a0f6d723d11c4689b4398e0844669393-ao-14" stroke="#2D2D2D" width="33.33333" x="367.4286" y="191.92857"/>
  <rect fill="#FFEBA2" height="14.88095" id="a0f6d723d11c4689b4398e0844669393-ao-15" stroke="#2D2D2D" width="62.5" x="410.88098" y="119.30952"/>
  <rect fill="#FFEBA2" height="13.09524" id="a0f6d723d11c4689b4398e0844669393-ao-16" stroke="#2D2D2D" width="44.04762" x="422.78574" y="136.57143"/>
  <rect fill="#FFEBA2" height="22.02381" id="a0f6d723d11c4689b4398e0844669393-ao-17" stroke="#2D2D2D" width="67.85714" x="390.64289" y="80.02381"/>
  <rect fill="#FFEBA2" height="10.11905" id="a0f6d723d11c4689b4398e0844669393-ao-18" stroke="#2D2D2D" width="41.66667" x="359.6905" y="56.21428"/>
  <rect fill="#FFEBA2" height="11.30952" id="a0f6d723d11c4689b4398e0844669393-ao-19" stroke="#2D2D2D" width="41.07143" x="301.95241" y="45.5"/>
 </g>
</svg>