<svg xmlns="http://www.w3.org/2000/svg" width="1938" height="1414">
 <!-- Created with Image Occlusion Enhanced -->
 <g>
  <title>Labels</title>
 </g>
 <g>
  <title>Masks</title>
  <rect id="a54a3d646389460bb9b1c36eb7e2ea10-ao-1" height="65.30612" width="206.12245" y="122.73473" x="10.97959" stroke="#2D2D2D" fill="#FFEBA2"/>
  <rect id="a54a3d646389460bb9b1c36eb7e2ea10-ao-2" height="71.42857" width="157.14286" y="18.65309" x="2.81632" stroke="#2D2D2D" fill="#FFEBA2"/>
  <rect id="a54a3d646389460bb9b1c36eb7e2ea10-ao-3" height="57.14286" width="304.08164" y="249.26534" x="6.89795" stroke="#2D2D2D" fill="#FFEBA2"/>
  <rect id="a54a3d646389460bb9b1c36eb7e2ea10-ao-4" height="138.77551" width="246.93878" y="702.32658" x="10.97959" stroke="#2D2D2D" fill="#FFEBA2"/>
  <rect id="a54a3d646389460bb9b1c36eb7e2ea10-ao-5" height="71.42857" width="155.10204" y="863.55107" x="4.85714" stroke="#2D2D2D" fill="#FFEBA2"/>
  <rect id="a54a3d646389460bb9b1c36eb7e2ea10-ao-6" height="79.59184" width="328.57144" y="996.20413" x="2.81632" stroke="#2D2D2D" fill="#FFEBA2"/>
  <rect id="a54a3d646389460bb9b1c36eb7e2ea10-ao-7" height="59.18367" width="351.02042" y="1079.8776" x="8.93877" stroke="#2D2D2D" fill="#FFEBA2"/>
  <rect id="a54a3d646389460bb9b1c36eb7e2ea10-ao-8" height="69.38776" width="275.51021" y="1157.42863" x="23.22448" stroke="#2D2D2D" fill="#FFEBA2"/>
  <rect id="a54a3d646389460bb9b1c36eb7e2ea10-ao-9" height="51.02041" width="348.9796" y="1257.42863" x="4.85714" stroke="#2D2D2D" fill="#FFEBA2"/>
  <rect id="a54a3d646389460bb9b1c36eb7e2ea10-ao-10" height="63.26531" width="357.14286" y="1077.83679" x="1202.81635" stroke="#2D2D2D" fill="#FFEBA2"/>
  <rect id="a54a3d646389460bb9b1c36eb7e2ea10-ao-11" height="69.38776" width="277.55103" y="953.34699" x="1102.81634" stroke="#2D2D2D" fill="#FFEBA2"/>
  <rect id="a54a3d646389460bb9b1c36eb7e2ea10-ao-12" height="61.22449" width="383.67348" y="883.95923" x="1115.06124" stroke="#2D2D2D" fill="#FFEBA2"/>
  <rect id="a54a3d646389460bb9b1c36eb7e2ea10-ao-13" height="55.10204" width="336.7347" y="818.65311" x="1204.85716" stroke="#2D2D2D" fill="#FFEBA2"/>
  <rect id="a54a3d646389460bb9b1c36eb7e2ea10-ao-14" height="57.14286" width="285.71429" y="732.93882" x="1090.57145" stroke="#2D2D2D" fill="#FFEBA2"/>
  <rect id="a54a3d646389460bb9b1c36eb7e2ea10-ao-15" height="65.30612" width="291.83674" y="665.59188" x="1219.14288" stroke="#2D2D2D" fill="#FFEBA2"/>
  <rect id="a54a3d646389460bb9b1c36eb7e2ea10-ao-16" height="55.10204" width="336.7347" y="604.36739" x="1080.36736" stroke="#2D2D2D" fill="#FFEBA2"/>
  <rect id="a54a3d646389460bb9b1c36eb7e2ea10-ao-17" height="59.18367" width="385.71429" y="602.32657" x="1435.46941" stroke="#2D2D2D" fill="#FFEBA2"/>
  <rect id="a54a3d646389460bb9b1c36eb7e2ea10-ao-18" height="57.14286" width="391.83674" y="534.97963" x="1119.14288" stroke="#2D2D2D" fill="#FFEBA2"/>
  <rect id="a54a3d646389460bb9b1c36eb7e2ea10-ao-19" height="65.30612" width="416.32654" y="469.67351" x="1159.9592" stroke="#2D2D2D" fill="#FFEBA2"/>
  
  <rect id="a54a3d646389460bb9b1c36eb7e2ea10-ao-21" height="61.22449" width="381.63266" y="247.22452" x="1464.04084" stroke="#2D2D2D" fill="#FFEBA2"/>
  <rect id="a54a3d646389460bb9b1c36eb7e2ea10-ao-22" height="55.10204" width="440.81634" y="188.04085" x="1490.57145" stroke="#2D2D2D" fill="#FFEBA2"/>
  <rect id="a54a3d646389460bb9b1c36eb7e2ea10-ao-23" height="57.14286" width="326.53062" y="86.00003" x="1562.00003" stroke="#2D2D2D" fill="#FFEBA2"/>
 </g>
</svg>