<svg height="777" width="1403" xmlns="http://www.w3.org/2000/svg">
 <!-- Created with Image Occlusion Enhanced -->
 <g>
  <title>Labels</title>
 </g>
 <g>
  <title>Masks</title>
  <rect fill="#FFEBA2" height="22" id="af3a0f959bd14c99a97993ffca9f321e-ao-1" stroke="#2D2D2D" width="140" x="293" y="135"/>
  <rect fill="#FFEBA2" height="28" id="af3a0f959bd14c99a97993ffca9f321e-ao-2" stroke="#2D2D2D" transform="rotate(19.29004669189453 583,320.9999999999999) " width="108" x="529" y="307"/>
  <rect class="qshape" fill="#FF7E7E" height="44" id="af3a0f959bd14c99a97993ffca9f321e-ao-3" stroke="#2D2D2D" width="66" x="517" y="327"/>
  <rect fill="#FFEBA2" height="24" id="af3a0f959bd14c99a97993ffca9f321e-ao-4" stroke="#2D2D2D" transform="rotate(46.97493362426758 657.9999999999997,315.0000000000001) " width="94" x="611" y="303"/>
  <rect fill="#FFEBA2" height="52" id="af3a0f959bd14c99a97993ffca9f321e-ao-5" stroke="#2D2D2D" transform="rotate(42.878902435302734 766,317.0000000000001) " width="26" x="753" y="291"/>
  <rect fill="#FFEBA2" height="26" id="af3a0f959bd14c99a97993ffca9f321e-ao-6" stroke="#2D2D2D" width="54" x="577" y="445"/>
  <rect fill="#FFEBA2" height="22" id="af3a0f959bd14c99a97993ffca9f321e-ao-7" stroke="#2D2D2D" width="98" x="687" y="467"/>
  <rect fill="#FFEBA2" height="24" id="af3a0f959bd14c99a97993ffca9f321e-ao-8" stroke="#2D2D2D" width="70" x="393" y="427"/>
  <rect fill="#FFEBA2" height="26" id="af3a0f959bd14c99a97993ffca9f321e-ao-9" stroke="#2D2D2D" transform="rotate(-42.709388732910156 296.99999999999994,390.00000000000006) " width="88" x="253" y="377"/>
  <rect fill="#FFEBA2" height="36" id="af3a0f959bd14c99a97993ffca9f321e-ao-10" stroke="#2D2D2D" transform="rotate(-36.869895935058594 191,353) " width="104" x="139" y="335"/>
  <rect fill="#FFEBA2" height="70" id="af3a0f959bd14c99a97993ffca9f321e-ao-11" stroke="#2D2D2D" transform="rotate(34.54836654663086 109.25396728515634,360.7978210449218) " width="27.76024" x="95.37384" y="325.79781"/>
  <rect fill="#FFEBA2" height="34" id="af3a0f959bd14c99a97993ffca9f321e-ao-12" stroke="#2D2D2D" width="74" x="263" y="497"/>
  <rect fill="#FFEBA2" height="36" id="af3a0f959bd14c99a97993ffca9f321e-ao-13" stroke="#2D2D2D" width="112" x="1223" y="451"/>
  <rect fill="#FFEBA2" height="34" id="af3a0f959bd14c99a97993ffca9f321e-ao-14" stroke="#2D2D2D" width="128" x="987" y="77"/>
  <rect fill="#FFEBA2" height="46" id="af3a0f959bd14c99a97993ffca9f321e-ao-15" stroke="#2D2D2D" width="90" x="873" y="69"/>
  <rect fill="#FFEBA2" height="40" id="af3a0f959bd14c99a97993ffca9f321e-ao-16" stroke="#2D2D2D" width="80" x="773" y="63"/>
  <rect fill="#FFEBA2" height="32" id="af3a0f959bd14c99a97993ffca9f321e-ao-17" stroke="#2D2D2D" width="146" x="593" y="11"/>
  <rect fill="#FFEBA2" height="40" id="af3a0f959bd14c99a97993ffca9f321e-ao-18" stroke="#2D2D2D" width="136" x="1135" y="35"/>
  <rect fill="#FFEBA2" height="26" id="af3a0f959bd14c99a97993ffca9f321e-ao-19" stroke="#2D2D2D" width="70" x="663" y="387"/>
  <rect fill="#FFEBA2" height="26" id="af3a0f959bd14c99a97993ffca9f321e-ao-20" stroke="#2D2D2D" width="94" x="385" y="387"/>
  <rect fill="#FFEBA2" height="36" id="af3a0f959bd14c99a97993ffca9f321e-ao-21" stroke="#2D2D2D" width="96" x="299" y="319"/>
  <rect fill="#FFEBA2" height="30" id="af3a0f959bd14c99a97993ffca9f321e-ao-22" stroke="#2D2D2D" width="56" x="211" y="267"/>
  <rect fill="#FFEBA2" height="38" id="af3a0f959bd14c99a97993ffca9f321e-ao-23" stroke="#2D2D2D" width="120" x="13" y="607"/>
 </g>
</svg>