<svg xmlns="http://www.w3.org/2000/svg" width="2052" height="1336">
 <!-- Created with Image Occlusion Enhanced -->
 <g>
  <title>Labels</title>
 </g>
 <g>
  <title>Masks</title>
  <rect fill="#FFEBA2" stroke="#2D2D2D" x="1104.25003" y="536.65623" width="231.25001" height="51.5625" id="cc8e8bd45b004f899b9e7cc0b40c25c0-ao-4" transform="rotate(-14.381462097167969 1219.874999999999,562.4375) "/>
  <rect fill="#FFEBA2" stroke="#2D2D2D" x="1740.18753" y="355.40623" width="231.25001" height="51.5625" id="cc8e8bd45b004f899b9e7cc0b40c25c0-ao-14"/>
  <rect fill="#FFEBA2" x="1607.37501" y="305.40626" width="93.75" height="51.5625" id="cc8e8bd45b004f899b9e7cc0b40c25c0-ao-18" stroke="#2D2D2D"/>
  <rect id="cc8e8bd45b004f899b9e7cc0b40c25c0-ao-24" height="192.3077" width="357.69232" y="102.4616" x="1628.76914" stroke="#2D2D2D" fill="#FFEBA2"/>
  <rect fill="#FFEBA2" stroke="#2D2D2D" x="560" y="512" width="224" height="58" id="cc8e8bd45b004f899b9e7cc0b40c25c0-ao-1"/>
  
  <g id="cc8e8bd45b004f899b9e7cc0b40c25c0-ao-3">
   <rect fill="#FFEBA2" stroke="#2D2D2D" x="1594.87503" y="1078.84373" width="231.25001" height="51.5625"/>
   <rect fill="#FFEBA2" stroke="#2D2D2D" x="1608.93753" y="881.96873" width="231.25001" height="51.5625"/>
   <rect fill="#FFEBA2" x="1265.24517" y="702.35465" width="193.26263" height="51.5625" transform="rotate(-48.09415817260742 1361.8764648437498,728.1359252929686) " stroke="#2D2D2D"/>
   <rect fill="#FFEBA2" stroke="#2D2D2D" x="1335.50003" y="869.46873" width="231.25001" height="51.5625"/>
   <rect fill="#FFEBA2" x="1460.74371" y="731.96866" width="193.26263" height="51.5625" transform="rotate(-25.641088485717773 1557.374999999999,757.7499389648436) " stroke="#2D2D2D"/>
   <rect fill="#FFEBA2" stroke="#2D2D2D" x="1228" y="986" width="260" height="84"/>
   <rect fill="#FFEBA2" stroke="#2D2D2D" x="1470" y="554" width="176" height="56"/>
  </g>
  <g id="cc8e8bd45b004f899b9e7cc0b40c25c0-ao-5">
   <rect fill="#FFEBA2" stroke="#2D2D2D" x="226.12491" y="231.18754" width="231.25001" height="51.5625"/>
   <rect fill="#FFEBA2" stroke="#2D2D2D" x="8.93753" y="430.40623" width="231.25001" height="51.5625"/>
   <rect fill="#FFEBA2" stroke="#2D2D2D" x="12.06253" y="522.59373" width="231.25001" height="51.5625"/>
   <rect fill="#FFEBA2" x="260.50003" y="686.65622" width="231.25001" height="75" stroke="#2D2D2D"/>
   <rect fill="#FFEBA2" stroke="#2D2D2D" x="74" y="318" width="280" height="52"/>
   <rect fill="#FFEBA2" stroke="#2D2D2D" x="214" y="344" width="20" height="2"/>
  </g>
  <g id="cc8e8bd45b004f899b9e7cc0b40c25c0-ao-6">
   <rect fill="#FFEBA2" stroke="#2D2D2D" x="513.62503" y="694.46873" width="231.25001" height="51.5625"/>
   <rect fill="#FFEBA2" x="433.93753" y="1088.21876" width="203.12501" height="51.5625" stroke="#2D2D2D"/>
   <rect fill="#FFEBA2" x="608.9375" y="802.28126" width="203.12501" height="51.5625" stroke="#2D2D2D"/>
  </g>
 </g>
</svg>