<svg height="768" width="1022" xmlns="http://www.w3.org/2000/svg">
 <!-- Created with Image Occlusion Enhanced -->
 <g>
  <title>Labels</title>
 </g>
 <g>
  <title>Masks</title>
  <rect fill="#FFEBA2" height="21.17647" id="d400134058834d40ae0b99f8332f2afa-ao-1" stroke="#2D2D2D" width="65.88235" x="113.29409" y="217.88237"/>
  <rect fill="#FFEBA2" height="22.35294" id="d400134058834d40ae0b99f8332f2afa-ao-2" stroke="#2D2D2D" width="104.70588" x="116.8235" y="252.00002"/>
  <rect fill="#FFEBA2" height="23.52941" id="d400134058834d40ae0b99f8332f2afa-ao-3" stroke="#2D2D2D" width="88.2353" x="108.58821" y="277.88237"/>
  <rect fill="#FFEBA2" height="24.70588" id="d400134058834d40ae0b99f8332f2afa-ao-4" stroke="#2D2D2D" width="112.94118" x="116.8235" y="310.82355"/>
  <rect class="qshape" fill="#FF7E7E" height="27.05882" id="d400134058834d40ae0b99f8332f2afa-ao-5" stroke="#2D2D2D" width="82.35294" x="113.29409" y="337.88237"/>
  <rect fill="#FFEBA2" height="22.35294" id="d400134058834d40ae0b99f8332f2afa-ao-6" stroke="#2D2D2D" width="125.88236" x="110.94115" y="368.47061"/>
  <rect fill="#FFEBA2" height="28.23529" id="d400134058834d40ae0b99f8332f2afa-ao-7" stroke="#2D2D2D" width="105.88235" x="112.11762" y="396.7059"/>
  <rect fill="#FFEBA2" height="22.35294" id="d400134058834d40ae0b99f8332f2afa-ao-8" stroke="#2D2D2D" width="47.05882" x="115.64703" y="430.82355"/>
  <rect fill="#FFEBA2" height="23.52941" id="d400134058834d40ae0b99f8332f2afa-ao-9" stroke="#2D2D2D" width="88.2353" x="116.8235" y="460.23532"/>
  <rect fill="#FFEBA2" height="23.52941" id="d400134058834d40ae0b99f8332f2afa-ao-10" stroke="#2D2D2D" width="89.41177" x="121.52938" y="493.17649"/>
  <rect fill="#FFEBA2" height="25.88235" id="d400134058834d40ae0b99f8332f2afa-ao-11" stroke="#2D2D2D" width="96.47059" x="119.17644" y="522.58826"/>
  <rect fill="#FFEBA2" height="18.82353" id="d400134058834d40ae0b99f8332f2afa-ao-12" stroke="#2D2D2D" width="100" x="114.47056" y="555.52944"/>
  <rect fill="#FFEBA2" height="24.70588" id="d400134058834d40ae0b99f8332f2afa-ao-13" stroke="#2D2D2D" width="84.70588" x="119.17644" y="582.58826"/>
  <rect fill="#FFEBA2" height="20" id="d400134058834d40ae0b99f8332f2afa-ao-14" stroke="#2D2D2D" width="98.82353" x="122.70585" y="614.35297"/>
  <rect fill="#FFEBA2" height="21.17647" id="d400134058834d40ae0b99f8332f2afa-ao-15" stroke="#2D2D2D" width="104.70588" x="116.8235" y="643.76473"/>
  <rect fill="#FFEBA2" height="23.52941" id="d400134058834d40ae0b99f8332f2afa-ao-16" stroke="#2D2D2D" width="81.17647" x="120.35291" y="677.88238"/>
  <rect fill="#FFEBA2" height="25.88235" id="d400134058834d40ae0b99f8332f2afa-ao-17" stroke="#2D2D2D" width="87.05883" x="121.52938" y="710.82356"/>
 </g>
</svg>