<svg xmlns="http://www.w3.org/2000/svg" width="1484" height="946.0000000000001">
 <!-- Created with Image Occlusion Enhanced -->
 <g>
  <title>Labels</title>
 </g>
 <g>
  <title>Masks</title>
  <g id="f3609b3a3dc349cfafcbdfecb619e861-ao-1" class="qshape">
   <rect stroke="#2D2D2D" height="102.19781" width="214.28572" y="63.34065" x="793.47252" fill="#FF7E7E" class="qshape"/>
   <rect transform="rotate(-39.36925506591797 731.3846435546874,366.0879211425781) " height="51.64835" width="214.28572" y="340.26373" x="624.24174" stroke="#2D2D2D" fill="#FF7E7E" class="qshape"/>
   <rect stroke="#2D2D2D" transform="rotate(-22.970705032348633 1024.3970947265623,249.8903045654299) " height="51.64835" width="295.93523" y="224.06611" x="876.42951" fill="#FF7E7E" class="qshape"/>
   <rect transform="rotate(-16.69912338256836 1046.7692871093755,391.36264038085915) " stroke="#2D2D2D" height="51.64835" width="291.2088" y="365.53846" x="901.16483" fill="#FF7E7E" class="qshape"/>
   <rect stroke="#2D2D2D" transform="rotate(-22.970705032348633 961.0676879882815,214.6241912841796) " height="51.64835" width="238.67269" y="188.79999" x="841.73128" fill="#FF7E7E" class="qshape"/>
  </g>
  <g id="f3609b3a3dc349cfafcbdfecb619e861-ao-2">
   <rect height="51.64835" width="214.28572" y="5.64836" x="103.91216" stroke="#2D2D2D" fill="#FFEBA2"/>
   <rect stroke="#2D2D2D" transform="rotate(-71.92188262939453 485.1875305175781,243.5038299560547) " height="130.02568" width="265.94391" y="178.49098" x="352.21554" fill="#FFEBA2"/>
   <rect transform="rotate(-101.76831817626953 266.5494079589843,385.8681335449218) " height="51.64835" width="214.28572" y="360.04395" x="159.40654" stroke="#2D2D2D" fill="#FFEBA2"/>
   <rect height="51.64835" width="214.28572" y="71.03294" x="549.51646" stroke="#2D2D2D" fill="#FFEBA2"/>
   <rect height="51.64835" width="214.28572" y="21.58241" x="351.71425" stroke="#2D2D2D" fill="#FFEBA2"/>
  </g>
  <g id="f3609b3a3dc349cfafcbdfecb619e861-ao-3">
   <rect stroke="#2D2D2D" height="121.97798" width="147.25275" y="480.92312" x="665.99999" fill="#FFEBA2"/>
   <rect stroke="#2D2D2D" height="128.5714" width="214.28572" y="655.64832" x="387.97798" fill="#FFEBA2"/>
   <rect height="51.64835" width="214.28572" y="530.37363" x="1023.14284" stroke="#2D2D2D" fill="#FFEBA2"/>
  </g>
 </g>
</svg>