<svg xmlns="http://www.w3.org/2000/svg" width="1986" height="924">
 <!-- Created with Image Occlusion Enhanced -->
 <g>
  <title>Labels</title>
 </g>
 <g>
  <title>Masks</title>
  <rect fill="#FF7E7E" x="1324.75958" y="370.93672" width="145.56965" height="68.35443" id="faadd6b7642e4f329434afecbbf76b0a-ao-12" stroke="#2D2D2D" class="qshape"/>
  <rect fill="#FFEBA2" x="701.57229" y="855.72807" width="145.41406" height="68.35443" transform="rotate(1.6466246843338013 774.2792968750057,889.905334472657) " id="faadd6b7642e4f329434afecbbf76b0a-ao-15" stroke="#2D2D2D"/>
  <g id="faadd6b7642e4f329434afecbbf76b0a-ao-1">
   <rect fill="#FFEBA2" stroke="#2D2D2D" x="1680.45575" y="486.12657" width="254.43039" height="68.35443"/>
   <rect fill="#FFEBA2" x="1724.75959" y="54.48103" width="207.59495" height="68.35443" stroke="#2D2D2D" transform="rotate(-13.771585464477539 1828.5571289062498,88.65824127197205) "/>
   <rect fill="#FFEBA2" x="1683.03533" y="269.24649" width="250.31387" height="165.48478" transform="rotate(-6.980915546417236 1808.192260742188,351.98889160156216) " stroke="#2D2D2D"/>
   <rect fill="#FFEBA2" x="1435.62953" y="174.97018" width="403.98239" height="90.20539" transform="rotate(-10.407621383666992 1637.620727539063,220.07286071777312) " stroke="#2D2D2D"/>
   <rect fill="#FFEBA2" x="1417.16457" y="10.17723" width="292.40507" height="81.01266" stroke="#2D2D2D"/>
  </g>
  <g id="faadd6b7642e4f329434afecbbf76b0a-ao-2">
   <rect fill="#FFEBA2" stroke="#2D2D2D" x="34.25324" y="207.64552" width="201.26583" height="117.72152"/>
   <rect fill="#FFEBA2" stroke="#2D2D2D" x="453.2406" y="287.39236" width="254.43039" height="68.35443"/>
   <rect fill="#FFEBA2" stroke="#2D2D2D" x="1012.10127" y="192.45567" width="254.43039" height="68.35443" transform="rotate(-10.840176582336426 1139.3164062500002,226.63287353515614) "/>
   <rect fill="#FFEBA2" stroke="#2D2D2D" x="695.64557" y="263.34176" width="254.43039" height="68.35443"/>
   <rect fill="#FFEBA2" x="980.45574" y="346.88609" width="175.9494" height="101.26583" stroke="#2D2D2D"/>
  </g>
  <g id="faadd6b7642e4f329434afecbbf76b0a-ao-3">
   <rect fill="#FFEBA2" stroke="#2D2D2D" x="850.07595" y="705.11391" width="254.43039" height="68.35443"/>
   <rect fill="#FFEBA2" stroke="#2D2D2D" x="1261.46838" y="641.82278" width="254.43039" height="68.35443"/>
   <rect fill="#FFEBA2" x="139.94931" y="530.43037" width="188.60761" height="84.81013" stroke="#2D2D2D"/>
  </g>
 </g>
</svg>