<svg xmlns="http://www.w3.org/2000/svg" width="1019.9999999999999" height="614">
 <!-- Created with Image Occlusion Enhanced -->
 <g>
  <title>Labels</title>
 </g>
 <g>
  <title>Masks</title>
  <rect id="dee77c1fcfd94f9892cbf994dfe1006f-ao-1" height="15.38462" width="82.69231" y="352.82693" x="351.15378" stroke="#2D2D2D" fill="#FFEBA2"/>
  <rect id="dee77c1fcfd94f9892cbf994dfe1006f-ao-2" height="15.38462" width="98.07692" y="220.13462" x="365.57685" stroke="#2D2D2D" fill="#FFEBA2"/>
  <rect id="dee77c1fcfd94f9892cbf994dfe1006f-ao-3" height="17.30769" width="109.61539" y="384.5577" x="209.80762" stroke="#2D2D2D" fill="#FFEBA2"/>
  <rect id="dee77c1fcfd94f9892cbf994dfe1006f-ao-4" height="17.30769" width="73.07692" y="412.44231" x="236.7307" stroke="#2D2D2D" fill="#FFEBA2"/>
  <rect id="dee77c1fcfd94f9892cbf994dfe1006f-ao-5" height="17.30769" width="153.84615" y="536.48077" x="127.11531" stroke="#2D2D2D" fill="#FFEBA2"/>
  <rect id="dee77c1fcfd94f9892cbf994dfe1006f-ao-6" height="15.38462" width="115.38462" y="525.90385" x="438.65378" stroke="#2D2D2D" fill="#FFEBA2"/>
  <rect id="dee77c1fcfd94f9892cbf994dfe1006f-ao-7" height="16.34615" width="107.69231" y="453.78847" x="539.61531" stroke="#2D2D2D" fill="#FFEBA2"/>
  <rect id="dee77c1fcfd94f9892cbf994dfe1006f-ao-8" height="19.23077" width="223.07692" y="508.59616" x="676.15378" stroke="#2D2D2D" fill="#FFEBA2"/>
  <rect id="dee77c1fcfd94f9892cbf994dfe1006f-ao-9" height="17.30769" width="106.73077" y="379.75" x="586.7307" stroke="#2D2D2D" fill="#FFEBA2"/>
  <rect id="dee77c1fcfd94f9892cbf994dfe1006f-ao-10" height="21.15385" width="155.76923" y="386.48077" x="754.99993" stroke="#2D2D2D" fill="#FFEBA2"/>
  <rect id="dee77c1fcfd94f9892cbf994dfe1006f-ao-11" height="21.15385" width="110.57692" y="280.71154" x="837.69224" stroke="#2D2D2D" fill="#FFEBA2"/>
  <rect id="dee77c1fcfd94f9892cbf994dfe1006f-ao-12" height="19.23077" width="98.07692" y="106.67308" x="346.34608" stroke="#2D2D2D" fill="#FFEBA2"/>
  <rect id="dee77c1fcfd94f9892cbf994dfe1006f-ao-13" height="15.38462" width="84.61538" y="155.71154" x="320.38454" stroke="#2D2D2D" fill="#FFEBA2"/>
  <rect id="dee77c1fcfd94f9892cbf994dfe1006f-ao-14" height="16.34615" width="113.46154" y="248.01923" x="493.46147" stroke="#2D2D2D" fill="#FFEBA2"/>
  <rect id="dee77c1fcfd94f9892cbf994dfe1006f-ao-15" height="16.34615" width="113.46154" y="232.63462" x="785.76916" stroke="#2D2D2D" fill="#FFEBA2"/>
  <rect id="dee77c1fcfd94f9892cbf994dfe1006f-ao-16" height="18.26923" width="233.65385" y="145.13462" x="752.11532" stroke="#2D2D2D" fill="#FFEBA2"/>
  <rect id="dee77c1fcfd94f9892cbf994dfe1006f-ao-17" height="16.34615" width="141.34615" y="321.09616" x="390.57685" stroke="#2D2D2D" fill="#FFEBA2"/>
  <rect id="dee77c1fcfd94f9892cbf994dfe1006f-ao-18" height="18.26923" width="108.65385" y="351.86539" x="217.49993" stroke="#2D2D2D" fill="#FFEBA2"/>
  <rect id="dee77c1fcfd94f9892cbf994dfe1006f-ao-19" height="15.38462" width="123.07692" y="184.5577" x="164.61531" stroke="#2D2D2D" fill="#FFEBA2"/>
 </g>
</svg>